<svg width="800" height="800" viewBox="0 0 24 24" xmlns="http://www.w3.org/2000/svg"><path d="M14 8h.5A1.5 1.5 0 0 1 16 9.5a.5.5 0 1 1-1 0 .5.5 0 0 0-.5-.5h-5a.5.5 0 0 0-.5.5v1.133a.5.5 0 0 0 .43.495l5.282.754A1.5 1.5 0 0 1 16 13.367V14.5a1.5 1.5 0 0 1-1.5 1.5H14v.5a.5.5 0 1 1-1 0V16h-2v.5a.5.5 0 1 1-1 0V16h-.5A1.5 1.5 0 0 1 8 14.5a.5.5 0 1 1 1 0 .5.5 0 0 0 .5.5h5a.5.5 0 0 0 .5-.5v-1.133a.5.5 0 0 0-.43-.495l-5.282-.754A1.5 1.5 0 0 1 8 10.633V9.5A1.5 1.5 0 0 1 9.5 8h.5v-.5a.5.5 0 1 1 1 0V8h2v-.5a.5.5 0 1 1 1 0zM3 12a9 9 0 1 1 4.39 7.73l-3.732 1.244a.5.5 0 0 1-.605-.698l1.564-3.128A8.96 8.96 0 0 1 3 12m4.294 6.708a.5.5 0 0 1 .426.052A8 8 0 1 0 5.6 16.8a.5.5 0 0 1 .047.524l-1.16 2.32z"/></svg>